<?xml version="1.0" encoding="UTF-8" standalone="no"?>
<!-- Created with Inkscape (http://www.inkscape.org/) -->

<svg
   width="1120"
   height="1123.963"
   viewBox="0 0 296.33334 297.38189"
   version="1.1"
   id="svg1"
   xml:space="preserve"
   xmlns:xlink="http://www.w3.org/1999/xlink"
   xmlns="http://www.w3.org/2000/svg"
   xmlns:svg="http://www.w3.org/2000/svg"><defs
     id="defs1"><linearGradient
       id="linearGradient4"><stop
         style="stop-color:#59b1a4;stop-opacity:1;"
         offset="0"
         id="stop4" /><stop
         style="stop-color:#ffffff;stop-opacity:1;"
         offset="1"
         id="stop5" /></linearGradient><linearGradient
       id="linearGradient125"><stop
         style="stop-color:#ff6d4d;stop-opacity:1;"
         offset="0"
         id="stop124" /><stop
         style="stop-color:#ff6d4d;stop-opacity:0;"
         offset="1"
         id="stop125" /></linearGradient><linearGradient
       id="linearGradient122"><stop
         style="stop-color:#59b1a4;stop-opacity:1;"
         offset="0"
         id="stop122" /><stop
         style="stop-color:#59b1a4;stop-opacity:0.49685535;"
         offset="1"
         id="stop123" /></linearGradient><linearGradient
       id="linearGradient121"><stop
         style="stop-color:#59b1a4;stop-opacity:1;"
         offset="0"
         id="stop120" /><stop
         style="stop-color:#59b1a4;stop-opacity:0;"
         offset="1"
         id="stop121" /></linearGradient><linearGradient
       xlink:href="#linearGradient121"
       id="linearGradient382"
       gradientUnits="userSpaceOnUse"
       x1="81.213539"
       y1="77.410568"
       x2="84.012985"
       y2="56.77924" /><linearGradient
       xlink:href="#linearGradient4"
       id="linearGradient383"
       gradientUnits="userSpaceOnUse"
       x1="36.71516"
       y1="72.148224"
       x2="74.858292"
       y2="27.059855" /><linearGradient
       xlink:href="#linearGradient121"
       id="linearGradient384"
       gradientUnits="userSpaceOnUse"
       x1="39.32008"
       y1="58.539841"
       x2="103.60348"
       y2="7.0571022" /><linearGradient
       xlink:href="#linearGradient121"
       id="linearGradient385"
       gradientUnits="userSpaceOnUse"
       x1="40.274696"
       y1="58.810661"
       x2="75.931931"
       y2="28.970018" /><linearGradient
       xlink:href="#linearGradient121"
       id="linearGradient386"
       gradientUnits="userSpaceOnUse"
       x1="82.299797"
       y1="40.469212"
       x2="82.476295"
       y2="20.256832" /><linearGradient
       xlink:href="#linearGradient125"
       id="linearGradient387"
       gradientUnits="userSpaceOnUse"
       x1="86.778336"
       y1="59.035046"
       x2="86.18766"
       y2="53.434208" /><linearGradient
       xlink:href="#linearGradient125"
       id="linearGradient388"
       gradientUnits="userSpaceOnUse"
       x1="66.719955"
       y1="44.800625"
       x2="67.331802"
       y2="40.964165" /><linearGradient
       xlink:href="#linearGradient125"
       id="linearGradient389"
       gradientUnits="userSpaceOnUse"
       x1="58.550949"
       y1="55.05323"
       x2="59.394306"
       y2="52.208958" /><linearGradient
       xlink:href="#linearGradient125"
       id="linearGradient390"
       gradientUnits="userSpaceOnUse"
       x1="52.013016"
       y1="69.456741"
       x2="53.28968"
       y2="65.148102" /><linearGradient
       xlink:href="#linearGradient122"
       id="linearGradient391"
       gradientUnits="userSpaceOnUse"
       x1="78.046776"
       y1="54.564537"
       x2="77.525452"
       y2="51.139862" /></defs><g
     id="layer3"><image
       width="132.27919"
       height="132.27919"
       preserveAspectRatio="none"
       id="image1"
       x="0.0013529855"
       y="0.0016086058"
       style="display:none" /><g
       id="g382"
       transform="matrix(4.7445179,0,0,4.7542239,204.35176,-195.23802)"><circle
         style="display:none;fill:#ffffff;fill-opacity:1;stroke:none;stroke-width:0.264583;stroke-dasharray:none"
         id="circle358"
         cx="66.503487"
         cy="56.494228"
         r="30.1625" /><g
         id="g381"
         transform="translate(-82.656426,30.202495)"><circle
           style="display:none;fill:#ffffff;fill-opacity:1;stroke:none;stroke-width:0.264583;stroke-dasharray:none"
           id="circle359"
           cx="71.012222"
           cy="42.33334"
           r="30.1625" /><g
           id="g380"
           transform="translate(4.5087384,-14.160893)"><g
             id="g360"><path
               d="m 83.9358,66.461178 c -6.363138,-1.23e-4 -11.521616,5.158122 -11.521777,11.521261 0.0067,2.668472 0.939532,5.251882 2.639115,7.309115 7.645584,-2.26816 14.081782,-7.471931 17.900717,-14.473019 -2.184487,-2.751368 -5.504936,-4.355748 -9.018055,-4.357357 z"
               style="display:inline;fill:#ffffff;stroke-width:0.101066"
               id="path359" /><path
               d="M 83.935946,66.461061 A 11.521554,11.521554 0 0 0 72.414168,77.982322 11.521554,11.521554 0 0 0 75.053284,85.291437 30.1625,30.1625 0 0 0 92.954,70.818418 11.521554,11.521554 0 0 0 83.935946,66.461061 Z m -0.684713,1.742013 c 0.688571,0.01357 1.455123,0.250863 2.242757,0.841809 -1.984478,-0.197388 -3.022654,-0.06898 -5.047754,0.939994 0.152685,-0.75785 1.290143,-1.811658 2.804997,-1.781803 z"
               style="display:inline;fill:url(#linearGradient382);stroke-width:0.101066"
               id="path360" /></g><g
             id="g362"><path
               d="m 63.701023,48.962904 c -0.02374,0.0046 -0.0465,0.01493 -0.0677,0.03101 -0.678196,0.51449 -0.514389,3.040357 0.257348,4.560445 0.771741,1.520091 1.917506,5.261794 1.403016,10.570415 -0.514494,5.308617 -3.928443,2.15129 -3.928443,2.15129 0,0 -0.935388,-0.794835 -3.040124,-2.806031 -3.016793,-3.811915 -8.956991,-3.274088 -9.798886,-2.011247 0.257247,1.894269 5.355356,4.092181 7.904427,4.840532 2.549075,0.74835 7.085939,4.44355 7.717359,5.472534 0.257247,0.701583 -0.09353,6.594947 -0.09353,6.594947 -0.360046,3.98049 -1.764349,7.057922 -2.182813,7.908561 a 30.1625,30.1625 0 0 0 4.634343,0.381372 30.1625,30.1625 0 0 0 5.251359,-0.515214 C 69.598373,82.8497 69.20508,77.524986 69.20508,77.524986 c 0,0 -0.264583,-5.459099 0,-6.004802 0.157096,-0.27285 0.396875,-0.529166 0.675928,-0.787549 0.279051,-0.258381 0.59738,-0.518832 0.911572,-0.799951 3.346262,-2.994023 7.722526,-4.382162 7.722526,-4.382162 0,0 1.932881,-1.00505 0.155546,-1.566312 -1.777334,-0.561266 -5.752982,1.169311 -7.249687,2.385384 -1.496701,1.216072 -2.759208,0.514423 -3.273702,-1.824178 -0.514489,-2.3386 -0.02377,-6.851778 -0.02377,-6.851778 -0.04677,-2.64262 4.513937,-6.829041 4.513937,-6.829041 0,0 1.005521,-0.67808 -0.537952,-1.122412 -1.543478,-0.444336 -4.864658,3.625025 -5.168677,4.373376 -0.304019,0.748352 -0.58446,-0.07028 -0.58446,-0.07028 0,0 -1.9094,-5.223662 -2.645318,-5.082377 z"
               style="fill:#59b1a4;fill-opacity:1;stroke-width:0.264583"
               id="path361" /><path
               d="m 52.632009,61.839911 c -0.07039,-3.82e-4 -0.133808,0.0051 -0.188619,0.01602 -0.206345,0.04536 -0.473843,0.165678 -0.14056,0.280603 0.200907,0.06928 2.143286,1.152626 2.525944,1.48518 0,0 0.400266,0.254081 0.268718,-0.140559 -0.455661,-1.102066 -1.785044,-1.637557 -2.465483,-1.641244 z"
               style="fill:#ffffff;stroke-width:0.264583"
               id="path362" /></g><g
             id="g367"><path
               d="M 81.967658,30.607435 A 30.1625,30.1625 0 0 0 66.503486,26.331727 30.1625,30.1625 0 0 0 36.340985,56.494227 30.1625,30.1625 0 0 0 48.843581,80.921161 L 46.365696,76.86146 c 0,0 -5.622388,-8.003657 2.248959,-18.785417 7.011451,-7.672909 8.598964,-8.202091 13.758333,-16.867188 5.159371,-8.665095 13.626048,-11.641666 18.917709,-10.715625 0.271636,0.04754 0.424892,0.07076 0.676961,0.114205 z"
               style="display:inline;fill:url(#linearGradient383);stroke:none;stroke-width:0.264583"
               id="path363" /><g
               id="g366"><path
                 d="m 66.50602,26.331727 a 30.1625,30.1625 0 0 0 -30.162501,30.1625 30.1625,30.1625 0 0 0 2.361613,11.631849 c 0.306985,-2.129271 0.719174,-4.689385 1.191659,-6.714319 0.221508,-0.94932 0.709875,-2.078071 1.360123,-3.28197 0.04379,-0.214874 0.08781,-0.430081 0.150379,-0.649056 0.661457,-2.315102 5.721616,-8.598961 7.37526,-10.054167 1.653645,-1.455207 6.981084,-5.163422 9.227344,-8.532813 2.381248,-3.505726 6.198498,-6.806549 10.52649,-8.741069 5.874984,-2.625989 13.394417,0.438221 13.426054,0.451136 A 30.1625,30.1625 0 0 0 66.50602,26.331727 Z"
                 style="fill:url(#linearGradient384);stroke-width:0.264583"
                 id="path364" /><path
                 d="m 81.965542,30.605368 c -0.01415,-0.0046 -8.163766,-2.679439 -13.818279,0.685229 -5.659427,3.367592 -8.746753,7.296196 -8.746753,7.296196 0,0 -5.533861,5.588169 -8.886796,8.185547 -3.589781,2.780852 -9.634708,10.429926 -10.616923,14.639417 -0.472485,2.024936 -0.884674,4.585046 -1.191659,6.714319 A 30.1625,30.1625 0 0 0 48.846115,80.921161 L 46.36823,76.86146 c 0,0 -5.62238,-8.003668 2.248959,-18.785417 7.011444,-7.672901 8.59897,-8.202099 13.758333,-16.867188 5.159366,-8.665086 13.626054,-11.641665 18.917709,-10.715625 0.269989,0.04725 0.42347,0.07075 0.672827,0.113688 l 0.0016,-0.001 c -2e-6,-10e-7 -0.0021,-5.14e-4 -0.0021,-5.17e-4 z"
                 style="fill:#59b1a4;fill-opacity:1;stroke-width:0.264583"
                 id="path365" /><path
                 d="m 81.962441,30.603818 c -0.03164,-0.01291 -7.55107,-3.077125 -13.426054,-0.451136 -4.327992,1.93452 -8.145242,5.235343 -10.52649,8.741069 -2.24626,3.369391 -7.573699,7.077606 -9.227344,8.532813 -1.653644,1.455206 -6.713803,7.739065 -7.37526,10.054167 -0.06256,0.218975 -0.106591,0.434182 -0.150379,0.649056 2.233092,-4.134445 6.476586,-9.203733 9.2568,-11.357447 3.352931,-2.597375 8.886796,-8.185547 8.886796,-8.185547 0,0 3.087332,-3.928607 8.746753,-7.296196 5.654508,-3.364664 13.804126,-0.689878 13.818279,-0.685229 a 30.1625,30.1625 0 0 0 -0.0031,-0.0015 z"
                 style="fill:url(#linearGradient385);fill-opacity:1;stroke-width:0.264583"
                 id="path366" /></g></g><g
             id="g370"><path
               d="m 79.332229,33.28944 c -0.58998,-0.01364 -1.17056,0.02134 -1.73683,0.105936 -5.55181,0.829409 -9.94882,6.850992 -4.20957,10.476882 4.35535,2.751578 10.28971,3.507857 13.70407,5.425509 9.00228,5.05608 8.70638,12.910848 8.36538,15.387692 -0.0673,0.488674 -0.13333,0.842326 -0.13333,0.842326 0.28887,-1.096105 0.51314,-2.164752 0.69918,-3.215308 3.13539,-17.704984 -7.83917,-28.818378 -16.6889,-29.023037 z"
               style="display:inline;fill:#ffffff;fill-opacity:1;stroke:none;stroke-width:0.264583"
               id="path367" /><g
               id="g369"><path
                 d="m 79.332111,33.289442 c -0.589982,-0.01364 -1.170562,0.02134 -1.736845,0.105936 -3.125124,0.466876 -5.884196,2.57877 -6.675562,4.982642 0.560577,0.617338 2.312768,2.267707 5.880261,3.319178 4.443353,1.30962 11.926826,2.595987 15.247649,6.03374 -1.145919,-2.595859 -4.911069,-7.226445 -6.150529,-8.32559 1.824113,0.561265 5.986589,2.759787 8.395353,7.577315 0.89683,1.793659 1.276344,2.534343 1.682585,3.330546 C 93.789398,39.72334 85.964347,33.442819 79.332111,33.289442 Z"
                 style="fill:url(#linearGradient386);fill-opacity:0.574468;stroke-width:0.264583"
                 id="path368" /><path
                 d="m 95.975023,50.313209 c -0.406241,-0.796203 -0.785755,-1.536887 -1.682585,-3.330546 -2.408764,-4.817528 -6.57124,-7.01605 -8.395353,-7.577315 1.23946,1.099145 5.00461,5.729731 6.150529,8.32559 -3.320823,-3.437753 -10.804296,-4.72412 -15.247649,-6.03374 -3.567493,-1.051471 -5.319684,-2.70184 -5.880261,-3.319178 -0.614501,1.866622 -0.04261,3.909373 2.465999,5.494239 4.355339,2.751574 10.289722,3.507858 13.704074,5.425508 9.002274,5.056075 8.706388,12.91085 8.365381,15.387692 -0.06728,0.488673 -0.133325,0.842326 -0.133325,0.842326 0.288867,-1.096104 0.513137,-2.164753 0.699182,-3.215308 0.785638,-4.436354 0.68477,-8.458549 -0.04599,-11.999268 z"
                 style="fill:#59b1a4;fill-opacity:1;stroke-width:0.264583"
                 id="path369" /></g></g><g
             id="g371"><path
               d="m 85.118157,55.449447 c -2.430614,1.41e-4 -4.400909,1.970668 -4.400765,4.401282 1.42e-4,2.430412 1.970353,4.400623 4.400765,4.400765 2.430614,1.44e-4 4.40114,-1.970152 4.401282,-4.400765 1.44e-4,-2.430816 -1.970466,-4.401426 -4.401282,-4.401282 z"
               style="fill:#ffffff;stroke-width:0.0386053"
               id="path370" /><path
               d="m 85.118321,55.44933 a 4.4010215,4.4010215 0 0 0 -4.400765,4.401282 4.4010215,4.4010215 0 0 0 4.400765,4.400765 4.4010215,4.4010215 0 0 0 4.401282,-4.400765 4.4010215,4.4010215 0 0 0 -4.401282,-4.401282 z m -0.315226,1.504818 c 0.503825,0.0086 0.972459,0.16146 1.2361,0.361218 -2.958041,-0.270651 -3.321761,1.844849 -3.321761,1.844849 0.03415,-1.713128 1.123813,-2.222453 2.085661,-2.206067 z"
               style="fill:url(#linearGradient387);stroke-width:0.0386053"
               id="path371" /></g><g
             id="g373"><path
               d="m 66.860356,41.81617 c -1.502405,-1.37e-4 -2.720384,1.217843 -2.720247,2.720248 1.48e-4,1.502203 1.218044,2.719867 2.720247,2.71973 1.502203,1.37e-4 2.720099,-1.217527 2.720248,-2.71973 1.37e-4,-1.502405 -1.217843,-2.720385 -2.720248,-2.720248 z"
               style="fill:#ffffff;stroke-width:0.0238596"
               id="path372" /><path
               d="m 66.86052,41.816053 a 2.7199996,2.7199996 0 0 0 -2.720247,2.720248 2.7199996,2.7199996 0 0 0 2.720247,2.71973 2.7199996,2.7199996 0 0 0 2.720248,-2.71973 2.7199996,2.7199996 0 0 0 -2.720248,-2.720248 z m -0.05323,0.732255 c 0.469441,0.01702 0.628386,0.396881 0.28112,0.372071 -0.735871,-0.181901 -1.091406,0.959114 -1.091406,0.959114 0.04134,-1.364253 0.810286,-1.331185 0.810286,-1.331185 z"
               style="fill:url(#linearGradient388);stroke-width:0.0238596"
               id="path373" /></g><g
             id="g375"><path
               d="m 58.261398,52.994816 c -1.502405,-1.37e-4 -2.720385,1.217843 -2.720248,2.720248 1.49e-4,1.502203 1.218045,2.719867 2.720248,2.71973 1.502203,1.37e-4 2.720099,-1.217527 2.720247,-2.71973 1.37e-4,-1.502405 -1.217842,-2.720385 -2.720247,-2.720248 z"
               style="fill:#ffffff;stroke-width:0.0238596"
               id="path374" /><path
               d="m 58.261562,52.994699 a 2.7199996,2.7199996 0 0 0 -2.720248,2.720248 2.7199996,2.7199996 0 0 0 2.720248,2.719731 2.7199996,2.7199996 0 0 0 2.720247,-2.719731 2.7199996,2.7199996 0 0 0 -2.720247,-2.720248 z m -0.873849,0.901754 c 0.454278,-0.0034 0.651848,0.3322 0.263033,0.402043 -0.982956,0.0065 -1.065051,1.55391 -1.065051,1.55391 -0.383995,-1.727774 0.592728,-1.932182 0.592728,-1.932182 0.07443,-0.01608 0.144393,-0.02328 0.20929,-0.02377 z"
               style="fill:url(#linearGradient389);stroke-width:0.0238596"
               id="path375" /></g><g
             id="g377"><path
               d="m 51.516073,66.165072 c -2.430614,1.42e-4 -4.400909,1.970668 -4.400765,4.401282 1.41e-4,2.430412 1.970353,4.400623 4.400765,4.400765 2.430614,1.44e-4 4.40114,-1.970151 4.401282,-4.400765 1.43e-4,-2.430816 -1.970467,-4.401426 -4.401282,-4.401282 z"
               style="fill:#ffffff;stroke-width:0.0386053"
               id="path376" /><path
               d="m 51.516237,66.164955 a 4.4010215,4.4010215 0 0 0 -4.400765,4.401282 4.4010215,4.4010215 0 0 0 4.400765,4.400765 4.4010215,4.4010215 0 0 0 4.401281,-4.400765 4.4010215,4.4010215 0 0 0 -4.401281,-4.401282 z m -0.228927,1.571997 c 0.351141,0.0057 0.657841,0.09974 0.852144,0.277503 -0.926041,0.01654 -2.678906,0.793751 -3.356901,2.182812 0,-1.699118 1.451334,-2.477367 2.504757,-2.460315 z"
               style="fill:url(#linearGradient390);stroke-width:0.0386053"
               id="path377" /></g><g
             id="g379"><path
               d="m 81.176795,50.591862 c -1.449997,0.02457 -3.097951,0.475245 -4.517553,1.933216 -3.461121,3.554666 -3.227194,8.98033 -3.227194,8.98033 0,0 4.536896,-5.33186 7.436756,-6.454386 2.899858,-1.122527 4.069519,-3.648357 4.069519,-3.648357 0,0 -1.524446,-0.769589 -3.474207,-0.810286 -0.09478,-0.002 -0.190654,-0.0022 -0.287321,-5.17e-4 z"
               style="fill:#ffffff;stroke-width:0.264583"
               id="path378" /><path
               d="m 81.176959,50.591745 c -1.450002,0.02457 -3.097947,0.475241 -4.517554,1.933216 -3.461131,3.554677 -3.227193,8.98033 -3.227193,8.98033 0,0 4.536887,-5.331856 7.436756,-6.454386 2.899867,-1.12253 4.069519,-3.648357 4.069519,-3.648357 0,0 -1.524441,-0.769589 -3.474207,-0.810286 -0.09478,-0.002 -0.190654,-0.0022 -0.287321,-5.17e-4 z m -0.462504,1.514637 c -1.008723,1.819008 -3.108854,2.282031 -3.191536,2.364713 0,0 0.909507,-2.133204 3.191536,-2.364713 z"
               style="fill:url(#linearGradient391);fill-opacity:1;stroke-width:0.264583"
               id="path379" /></g></g></g></g></g></svg>
